<svg width="1824" height="168" viewBox="0 0 1824 168" fill="none" xmlns="http://www.w3.org/2000/svg">
<path d="M1672.65 166.157V1.64648H1733.52L1748.56 85.782L1764.07 1.64648H1824V166.157H1780.99L1781.7 69.8009L1761.48 166.157H1734.22L1714.01 69.8009L1714.72 166.157H1672.65Z" fill="black" style="fill:black;fill-opacity:1;"/>
<path d="M1665.68 83.9005C1665.68 137.484 1640.77 167.801 1602.7 167.801C1564.63 167.801 1539.71 137.484 1539.71 83.9005C1539.71 30.317 1564.63 0 1602.7 0C1640.77 0 1665.68 30.317 1665.68 83.9005ZM1585.31 84.6055C1585.31 111.397 1591.65 125.968 1602.7 125.968C1613.74 125.968 1620.09 111.397 1620.09 84.6055C1620.09 57.8138 1613.74 43.2428 1602.7 43.2428C1591.65 43.2428 1585.31 57.8138 1585.31 84.6055Z" fill="black" style="fill:black;fill-opacity:1;"/>
<path d="M1536.01 162.161C1528.49 166.391 1518.85 167.801 1508.75 167.801C1466.91 167.801 1439.42 137.484 1439.42 83.9005C1439.42 30.317 1467.38 0 1509.92 0C1519.56 0 1528.72 1.88011 1536.01 5.64036V53.3485C1530.37 47.4731 1524.26 43.7128 1514.39 43.7128C1497.94 43.7128 1486.19 58.0488 1486.19 84.3705C1486.19 110.692 1497.94 125.028 1515.09 125.028C1524.26 125.028 1530.84 121.973 1536.01 116.568V162.161Z" fill="black" style="fill:black;fill-opacity:1;"/>
<path d="M1441.91 142.888C1441.91 156.989 1431.1 167.8 1417.47 167.8C1403.84 167.8 1393.03 156.989 1393.03 142.888C1393.03 128.787 1403.84 117.977 1417.47 117.977C1431.1 117.977 1441.91 128.787 1441.91 142.888Z" fill="black" style="fill:black;fill-opacity:1;"/>
<path d="M1271.47 166.157V1.64648H1319.65L1346.44 84.6069L1344.8 1.64648H1387.1V166.157H1340.1L1312.13 78.9665L1313.54 166.157H1271.47Z" fill="black" style="fill:black;fill-opacity:1;"/>
<path d="M1146.39 166.157V1.64648H1194.57L1221.36 84.6069L1219.72 1.64648H1262.02V166.157H1215.02L1187.05 78.9665L1188.46 166.157H1146.39Z" fill="black" style="fill:black;fill-opacity:1;"/>
<path d="M1059.15 166.157H1016.38L1048.81 1.64648H1108.97L1141.64 166.157H1095.34L1091.82 142.656H1062.91L1059.15 166.157ZM1068.08 109.048H1086.64L1077.48 48.8846L1068.08 109.048Z" fill="black" style="fill:black;fill-opacity:1;"/>
<path d="M1010.44 162.161C1002.91 166.391 993.279 167.801 983.173 167.801C941.341 167.801 913.844 137.484 913.844 83.9005C913.844 30.317 941.811 0 984.348 0C993.984 0 1003.15 1.88011 1010.44 5.64036V53.3485C1004.79 47.4731 998.684 43.7128 988.814 43.7128C972.363 43.7128 960.612 58.0488 960.612 84.3705C960.612 110.692 972.363 125.028 989.519 125.028C998.684 125.028 1005.26 121.973 1010.44 116.568V162.161Z" fill="black" style="fill:black;fill-opacity:1;"/>
<path d="M908.004 163.806C902.599 166.626 896.018 167.801 888.968 167.801C856.535 167.801 834.914 146.415 834.914 108.812C834.914 71.21 856.771 50.0586 889.908 50.0586C896.488 50.0586 904.009 51.4687 908.004 54.0539V93.3014C904.009 88.8361 899.778 86.486 893.198 86.486C882.622 86.486 874.632 94.9465 874.632 109.517C874.632 124.323 882.622 132.784 893.198 132.784C899.543 132.784 903.774 130.904 908.004 126.909V163.806Z" fill="black" style="fill:black;fill-opacity:1;"/>
<path d="M675.668 166.157V1.64648H736.537L751.578 85.782L767.089 1.64648H827.018V166.157H784.01L784.715 69.8009L764.504 166.157H737.242L717.031 69.8009L717.736 166.157H675.668Z" fill="black" style="fill:black;fill-opacity:1;"/>
<path d="M574.641 134.194C558.66 134.194 551.375 117.273 555.605 86.7206C560.07 53.5835 573.936 34.7823 590.152 34.7823C600.258 34.7823 606.133 41.3627 608.248 52.4084L611.069 38.5425H641.621L627.755 108.342C626.815 113.512 627.99 115.628 631.045 115.628C639.74 115.628 653.136 93.7711 653.136 64.3942C653.136 30.552 635.04 13.8659 606.603 13.8659C570.411 13.8659 541.269 49.8232 541.269 99.4115C541.269 136.309 560.54 153.935 591.092 153.935C604.253 153.935 618.119 150.175 629.87 144.299V158.87C618.824 164.276 604.253 167.801 590.152 167.801C552.08 167.801 525.758 144.064 525.758 99.6465C525.758 41.3627 560.775 0 607.308 0C642.796 0 668.412 23.0315 668.412 64.1592C668.412 108.107 647.026 133.959 621.879 133.959C608.953 133.959 600.258 128.083 598.143 116.568C592.267 127.848 584.277 134.194 574.641 134.194ZM589.447 111.632C594.147 111.632 598.613 103.642 602.138 81.5503C605.663 61.809 604.488 57.8138 599.318 57.8138C594.382 57.8138 589.917 66.5093 586.627 87.1907C583.102 107.637 584.747 111.632 589.447 111.632Z" fill="black" style="fill:black;fill-opacity:1;"/>
<path d="M519.519 83.9005C519.519 137.484 494.608 167.801 456.535 167.801C418.462 167.801 393.551 137.484 393.551 83.9005C393.551 30.317 418.462 0 456.535 0C494.608 0 519.519 30.317 519.519 83.9005ZM439.144 84.6055C439.144 111.397 445.489 125.968 456.535 125.968C467.581 125.968 473.926 111.397 473.926 84.6055C473.926 57.8138 467.581 43.2428 456.535 43.2428C445.489 43.2428 439.144 57.8138 439.144 84.6055Z" fill="black" style="fill:black;fill-opacity:1;"/>
<path d="M309.605 166.157V1.64648H354.964V125.03H395.856V166.157H309.605Z" fill="black" style="fill:black;fill-opacity:1;"/>
<path d="M216.195 166.157V1.64648H261.553V125.03H302.446V166.157H216.195Z" fill="black" style="fill:black;fill-opacity:1;"/>
<path d="M121.406 166.157V1.64648H208.832V44.4193H166.764V65.8057H206.482V103.878H166.764V125.03H208.832V166.157H121.406Z" fill="black" style="fill:black;fill-opacity:1;"/>
<path d="M0 166.157V1.64648H45.593V61.8104H66.5094V1.64648H112.102V166.157H66.5094V104.113H45.593V166.157H0Z" fill="black" style="fill:black;fill-opacity:1;"/>
</svg>
