<svg data-name="Layer 2" xmlns="http://www.w3.org/2000/svg" viewBox="0 0 305.349 98.288"><g data-name="Layer 1"><path fill="none" d="M0 0H305.349V98.288H0z"/><path d="M52.118 26.155V97.32H25.455V26.155H7.453V.962h62.668v25.192H52.118zm54.287 72.133c-22.263 0-36.833-17.759-36.833-49.144S84.142 0 106.405 0s36.834 17.759 36.834 49.144-14.57 49.144-36.834 49.144zm0-24.508c6.461 0 10.171-8.535 10.171-24.224s-3.71-24.23-10.171-24.23-10.17 8.535-10.17 24.23 3.71 24.224 10.17 24.224zM147.361.962h26.524v72.266h23.913v24.091h-50.437V.962zm54.558 0h29.002c24.602 0 40.133 17.342 40.133 48.182s-15.531 48.182-40.133 48.182h-29.002V.962zm26.524 25.332v46.941h.411c10.721 0 15.531-7.984 15.531-23.401s-4.81-23.401-15.531-23.54h-.411zm50.371-19.581v16.385h-6.128V6.713h-4.151V.932h14.431v5.781h-4.152zM284.99.932h8.357l.248 2.179 1.475 8.22L296.182.932h9.167v22.166h-5.771v-.048h-.205l.048-11.973-1.565 7.609-.611 4.364h-.302v.048h-3.65v-.048h-1.063l-1.668-12.076.096 12.124h-5.668V.932z"/></g></svg>