<svg data-name="Layer 2" xmlns="http://www.w3.org/2000/svg" viewBox="0 0 347.747 98.288"><g data-name="Layer 1"><path fill="none" d="M0 0H347.747V98.288H0z"/><path d="M44.666 26.155V97.32H18.003V26.155H0V.962h62.669v25.192H44.666zM66.246.962h30.373c20.752 0 33.945 11.15 33.945 31.245 0 11.428-4.533 19.823-12.371 25.053l14.021 40.059H104.59L94.419 62.908h-2.061v34.411H66.245V.962zm26.107 23.129v17.893h3.161c5.771 0 9.21-3.166 9.21-8.807s-3.572-8.807-9.21-9.086h-3.161zm74.218 74.197c-19.791 0-32.573-10.048-32.573-32.075V.962h26.663v64.01c0 5.369 2.611 8.535 6.599 8.535s6.732-3.166 6.732-8.535V.962h26.663v64.561c0 22.438-13.331 32.759-34.084 32.759v.006zm81.499-72.133V97.32h-26.663V26.155h-18.003V.962h62.669v25.192H248.07zM269.645.962h26.662v35.24h12.232V.962h26.663v96.357h-26.663V60.977h-12.232v36.342h-26.662V.962z"/></g></svg>